<?xml version="1.0" encoding="UTF-8" standalone="no"?>
<!DOCTYPE svg PUBLIC "-//W3C//DTD SVG 1.1//EN" "http://www.w3.org/Graphics/SVG/1.1/DTD/svg11.dtd">
<svg width="100%" height="100%" viewBox="0 0 512 512" version="1.1" xmlns="http://www.w3.org/2000/svg" xmlns:xlink="http://www.w3.org/1999/xlink" xml:space="preserve" xmlns:serif="http://www.serif.com/" style="fill-rule:evenodd;clip-rule:evenodd;stroke-linejoin:round;stroke-miterlimit:2;">
    <g id="OBJECTS" transform="matrix(1.0048,0,0,0.97881,-270.291,-722.81)">
        <g id="BACKGOUND">
            <g id="OBJECTS1" serif:id="OBJECTS">
                <g>
                    <g>
                        <path d="M667.931,738.459C711.196,738.562 749.911,766.834 761.671,808.47C768.943,834.212 768.862,868.577 752.09,913.684C725.188,986.497 684.801,1008.13 684.801,1008.13C684.801,1008.13 347.724,782.963 270.351,959.929C270.351,959.929 253.983,891.136 335.161,849.659C415.793,808.461 540.315,738.156 667.931,738.459Z" style="fill:rgb(52,211,153);fill-rule:nonzero;"/>
                        <path d="M708.239,1205.07C686.518,1242.49 642.676,1261.88 600.738,1251.25C574.809,1244.67 545.089,1227.42 514.411,1190.34C464.804,1130.64 466.265,1084.85 466.265,1084.85C466.265,1084.85 829.801,905.511 715.23,750.021C715.23,750.021 782.99,770.243 778.322,861.283C773.685,951.711 772.31,1094.7 708.239,1205.07Z" style="fill:rgb(167,243,208);fill-rule:nonzero;"/>
                        <path d="M674.596,1240.23C674.596,1240.23 623.161,1288.82 546.652,1239.26C470.68,1190.03 347.514,1117.33 283.998,1006.68C275.461,991.752 271.113,975.161 270.897,958.731C310.199,871.108 414.09,883.779 507.94,918.141C509.283,1030.25 529.793,1256.44 674.596,1240.23Z" style="fill:rgb(5,150,105);fill-rule:nonzero;"/>
                    </g>
                </g>
            </g>
        </g>
    </g>
</svg>
